<?xml version="1.0" standalone="no"?>
<!DOCTYPE svg PUBLIC "-//W3C//DTD SVG 20010904//EN"
 "http://www.w3.org/TR/2001/REC-SVG-20010904/DTD/svg10.dtd">
<svg version="1.0" xmlns="http://www.w3.org/2000/svg"
 width="600.000000pt" height="600.000000pt" viewBox="0 0 600.000000 600.000000"
 preserveAspectRatio="xMidYMid meet">

<g transform="translate(0.000000,600.000000) scale(0.100000,-0.100000)"
fill="#000000" stroke="none">
<path d="M2917 3966 c-101 -38 -228 -149 -311 -274 -77 -116 -174 -336 -196
-444 -92 -444 174 -890 595 -998 116 -30 121 -28 90 18 -47 71 -51 198 -10
337 14 49 52 121 60 113 2 -2 -3 -51 -11 -108 -9 -58 -16 -148 -17 -200 -2
-109 12 -148 66 -180 l32 -20 -294 0 c-284 0 -294 1 -278 18 24 27 21 72 -9
128 -26 49 -152 234 -159 234 -2 0 1 -16 7 -37 20 -73 -14 -188 -71 -236 -39
-33 -45 -34 -199 -46 -67 -6 -129 -14 -138 -19 -15 -8 -14 -11 6 -25 l22 -16
-33 -5 c-19 -3 -67 -8 -108 -11 -74 -5 -112 -17 -94 -28 5 -4 52 -12 104 -19
134 -18 2069 -18 2214 0 158 20 147 36 -37 52 -55 4 -102 10 -104 13 -3 3 2
27 10 53 83 265 -84 502 -553 787 -164 100 -292 220 -338 316 l-30 61 -11 -77
c-7 -43 -12 -91 -13 -108 l0 -30 -11 25 c-13 33 -3 142 19 204 11 30 38 70 66
100 l48 51 -6 -40 c-3 -22 -9 -49 -12 -60 -14 -50 16 6 36 67 29 89 51 97 52
20 2 -104 15 -114 22 -17 5 66 12 97 27 115 42 54 80 134 80 170 0 58 -22 71
-142 81 -57 4 -128 15 -158 23 -84 24 -169 29 -213 12z m148 -105 c-4 -13 1
-24 17 -36 l23 -16 -30 3 c-33 3 -45 29 -25 53 17 20 23 19 15 -4z m144 -128
c-40 -36 -63 -70 -96 -138 -45 -93 -51 -75 -11 33 24 64 58 106 107 132 57 30
57 24 0 -27z m84 18 c-51 -37 -74 -69 -124 -173 -28 -59 -37 -73 -33 -48 19
106 74 193 143 230 53 28 60 24 14 -9z m21 -635 c19 -8 53 -31 76 -52 81 -73
110 -168 114 -374 3 -137 5 -143 36 -206 18 -35 69 -107 112 -160 44 -53 78
-97 76 -100 -9 -8 -106 67 -156 120 -82 87 -95 124 -103 301 -12 252 -61 388
-168 461 -40 27 -36 30 13 10z"/>
</g>
</svg>
